<svg xmlns="http://www.w3.org/2000/svg" viewBox="0 0 38 38"><defs><style>.cls-1{fill:#22aff2;}</style></defs><g id="Layer_2" data-name="Layer 2"><g id="ELEMENTS"><path class="cls-1" d="M19,0A19,19,0,1,0,38,19,19,19,0,0,0,19,0ZM35.32,17.69H28.18c-.18-5.93-1.56-11-3.67-14.11A16.4,16.4,0,0,1,35.32,17.69ZM19,35.38c-3,0-6.25-6.12-6.55-15.07h13.1C25.25,29.26,22,35.38,19,35.38ZM12.45,17.69C12.75,8.75,16,2.62,19,2.62s6.25,6.13,6.55,15.07ZM13.5,3.58C11.38,6.74,10,11.76,9.83,17.69H2.68A16.4,16.4,0,0,1,13.5,3.58ZM2.68,20.31H9.83c.18,5.93,1.55,11,3.67,14.12A16.42,16.42,0,0,1,2.68,20.31ZM24.51,34.43c2.11-3.16,3.49-8.19,3.67-14.12h7.14A16.43,16.43,0,0,1,24.51,34.43Z"/></g></g></svg>