<svg xmlns="http://www.w3.org/2000/svg" viewBox="0 0 43.4 35.72"><defs><style>.cls-1{fill:#22aff2;}</style></defs><g id="Layer_2" data-name="Layer 2"><g id="ELEMENTS"><path class="cls-1" d="M43.22,4.28a17.51,17.51,0,0,1-4.39,1.25c.71-.12,1.75-1.39,2.16-1.91A8.05,8.05,0,0,0,42.45,1c0-.07.07-.17,0-.22a.26.26,0,0,0-.23,0,22.54,22.54,0,0,1-5.21,2,.36.36,0,0,1-.36-.1,3.93,3.93,0,0,0-.45-.46A9.11,9.11,0,0,0,33.67.64,8.67,8.67,0,0,0,29.8,0a9.26,9.26,0,0,0-3.67,1,9.61,9.61,0,0,0-3,2.42A9.07,9.07,0,0,0,21.41,7a9.61,9.61,0,0,0-.1,3.74c0,.21,0,.23-.18.21C14,9.89,8.06,7.34,3.25,1.85c-.21-.23-.32-.23-.49,0C.65,5,1.68,10.1,4.3,12.59c.36.33.72.66,1.1,1a9.17,9.17,0,0,1-3.45-1c-.21-.14-.31-.06-.33.18a5.12,5.12,0,0,0,.06,1A9.16,9.16,0,0,0,7.33,21.1a5.1,5.1,0,0,0,1.15.35,10.42,10.42,0,0,1-3.39.11c-.25,0-.34.07-.25.31,1.49,4.06,4.71,5.27,7.12,5.95.32.06.64.06,1,.14,0,0,0,0-.05.05-.8,1.22-3.57,2.13-4.86,2.58a17.43,17.43,0,0,1-7.37.94c-.4-.06-.48-.05-.59,0s0,.16.11.26c.5.34,1,.63,1.54.92a24.75,24.75,0,0,0,4.93,2c8.86,2.44,18.84.65,25.49-6,5.22-5.19,7.05-12.35,7.05-19.52,0-.28.34-.43.53-.58A17,17,0,0,0,43.17,5a1.09,1.09,0,0,0,.23-.69v0C43.4,4.17,43.4,4.2,43.22,4.28Z"/></g></g></svg>